<svg width="157" height="53" viewBox="0 0 157 53" fill="none" xmlns="http://www.w3.org/2000/svg">
<rect width="157" height="53" rx="26.5" fill="black"/>
<path d="M46.9579 26.4105C46.9579 23.8238 49.1164 22.4845 49.2184 22.4845C47.9861 20.7259 46.1329 20.4192 45.41 20.4192C43.8625 20.2147 42.3249 21.3496 41.5 21.3496C40.6754 21.3496 39.4431 20.4192 38.1092 20.4192C36.358 20.4192 34.8204 21.4518 33.8938 23.0059C32.0407 26.206 33.3746 30.8578 35.1258 33.4346C35.9507 34.6715 36.979 36.1235 38.4149 36.0212C39.7488 36.0212 40.2681 35.1929 41.8057 35.1929C43.3433 35.1929 43.8625 36.0212 45.1964 36.0212C46.632 36.0212 47.457 34.784 48.2816 33.4346C49.3101 31.9928 49.7172 30.541 49.7172 30.541C49.6257 30.541 46.9579 29.5084 46.9579 26.4105Z" fill="white"/>
<path d="M44.3814 18.6613C45.1044 17.7309 45.5117 16.596 45.41 15.3589C44.3814 15.3589 43.1495 16.0848 42.4266 16.9129C41.8053 17.6388 41.1946 18.9782 41.2963 20.113C42.4266 20.2153 43.6585 19.5916 44.3814 18.6613Z" fill="white"/>
<path d="M64.016 32L64.842 29.634H68.664L69.49 32H71.38L67.684 21.766H65.85L62.154 32H64.016ZM66.536 24.818C66.634 24.538 66.718 24.23 66.76 24.034C66.788 24.244 66.886 24.552 66.97 24.818L68.146 28.122H65.374L66.536 24.818ZM72.4113 35.206H74.1193V31.076C74.5533 31.776 75.4493 32.182 76.4853 32.182C78.5433 32.182 79.7193 30.614 79.7193 28.458C79.7193 26.288 78.4313 24.874 76.4853 24.874C75.4353 24.874 74.5253 25.336 74.1053 26.134L73.9933 25.084H72.4113V35.206ZM74.1333 28.542C74.1333 27.296 74.9033 26.428 76.0793 26.428C77.2833 26.428 77.9973 27.31 77.9973 28.542C77.9973 29.774 77.2833 30.642 76.0793 30.642C74.9033 30.642 74.1333 29.788 74.1333 28.542ZM81.0793 35.206H82.7873V31.076C83.2213 31.776 84.1173 32.182 85.1533 32.182C87.2113 32.182 88.3873 30.614 88.3873 28.458C88.3873 26.288 87.0993 24.874 85.1533 24.874C84.1033 24.874 83.1933 25.336 82.7733 26.134L82.6613 25.084H81.0793V35.206ZM82.8013 28.542C82.8013 27.296 83.5713 26.428 84.7473 26.428C85.9513 26.428 86.6653 27.31 86.6653 28.542C86.6653 29.774 85.9513 30.642 84.7473 30.642C83.5713 30.642 82.8013 29.788 82.8013 28.542ZM93.1847 24.622C93.1847 26.19 94.0947 27.184 95.8307 27.562L97.4547 27.926C98.2947 28.108 98.6447 28.514 98.6447 29.2C98.6447 30.054 97.8887 30.572 96.6987 30.572C95.5507 30.572 94.8507 30.054 94.8367 29.186H93.0447C93.0867 31.02 94.5147 32.182 96.6987 32.182C98.9527 32.182 100.437 30.95 100.437 29.046C100.437 27.52 99.5827 26.624 97.8327 26.246L96.2227 25.896C95.3687 25.7 94.9767 25.294 94.9767 24.566C94.9767 23.712 95.6907 23.18 96.7967 23.18C97.8047 23.18 98.4347 23.698 98.4767 24.58H100.269C100.213 22.732 98.8967 21.584 96.8247 21.584C94.6687 21.584 93.1847 22.83 93.1847 24.622ZM104.158 32V26.512H105.502V25.084H104.158V22.928H102.45V25.084H101.12V26.512H102.45V32H104.158ZM106.089 28.528C106.089 30.684 107.643 32.168 109.785 32.168C111.927 32.168 113.481 30.684 113.481 28.528C113.481 26.372 111.927 24.888 109.785 24.888C107.643 24.888 106.089 26.372 106.089 28.528ZM107.797 28.528C107.797 27.268 108.609 26.414 109.785 26.414C110.961 26.414 111.773 27.268 111.773 28.528C111.773 29.788 110.961 30.642 109.785 30.642C108.609 30.642 107.797 29.788 107.797 28.528ZM119.175 25.056C118.895 24.986 118.657 24.958 118.419 24.958C117.495 24.958 116.837 25.42 116.543 26.106L116.445 25.098H114.835V32H116.543V28.64C116.543 27.296 117.313 26.638 118.545 26.638H119.175V25.056ZM123.193 32.182C124.999 32.182 126.259 31.272 126.553 29.76H124.971C124.775 30.418 124.159 30.782 123.221 30.782C122.087 30.782 121.443 30.166 121.317 28.948L126.525 28.934V28.416C126.525 26.26 125.209 24.874 123.137 24.874C121.107 24.874 119.693 26.372 119.693 28.542C119.693 30.684 121.135 32.182 123.193 32.182ZM123.151 26.274C124.173 26.274 124.831 26.904 124.831 27.856H121.359C121.527 26.82 122.143 26.274 123.151 26.274Z" fill="white"/>
</svg>
